<mxfile host="app.diagrams.net" agent="Mozilla/5.0 (Macintosh; Intel Mac OS X 10_15_7) AppleWebKit/537.36 (KHTML, like Gecko) Chrome/138.0.0.0 Safari/537.36" version="27.2.0">
  <diagram name="第 1 页" id="iqgfKE5KjqIpVdGSzMP1">
    <mxGraphModel dx="1937" dy="633" grid="1" gridSize="10" guides="1" tooltips="1" connect="1" arrows="1" fold="1" page="1" pageScale="1" pageWidth="827" pageHeight="1169" math="0" shadow="0">
      <root>
        <mxCell id="0" />
        <mxCell id="1" parent="0" />
        <mxCell id="HCOR3qAwKXEvXlQrW8_Q-28" value="" style="rounded=0;whiteSpace=wrap;html=1;dashed=1;strokeColor=light-dark(#0400ff, #ededed);strokeWidth=2;container=0;" vertex="1" parent="1">
          <mxGeometry x="-160" y="590" width="1050" height="470" as="geometry" />
        </mxCell>
        <mxCell id="HCOR3qAwKXEvXlQrW8_Q-32" style="edgeStyle=orthogonalEdgeStyle;rounded=0;orthogonalLoop=1;jettySize=auto;html=1;exitX=1;exitY=0.5;exitDx=0;exitDy=0;entryX=0;entryY=0.5;entryDx=0;entryDy=0;strokeWidth=2;" edge="1" parent="1" source="HCOR3qAwKXEvXlQrW8_Q-30" target="HCOR3qAwKXEvXlQrW8_Q-31">
          <mxGeometry relative="1" as="geometry" />
        </mxCell>
        <mxCell id="HCOR3qAwKXEvXlQrW8_Q-30" value="&lt;font style=&quot;font-size: 16px;&quot;&gt;日志平台&lt;/font&gt;" style="rounded=0;whiteSpace=wrap;html=1;fillColor=#ffe6cc;strokeColor=#d79b00;container=0;" vertex="1" parent="1">
          <mxGeometry x="-110" y="630" width="120" height="60" as="geometry" />
        </mxCell>
        <mxCell id="HCOR3qAwKXEvXlQrW8_Q-41" style="edgeStyle=orthogonalEdgeStyle;rounded=0;orthogonalLoop=1;jettySize=auto;html=1;exitX=1;exitY=0.5;exitDx=0;exitDy=0;entryX=0;entryY=0.5;entryDx=0;entryDy=0;strokeWidth=2;" edge="1" parent="1" source="HCOR3qAwKXEvXlQrW8_Q-31" target="HCOR3qAwKXEvXlQrW8_Q-39">
          <mxGeometry relative="1" as="geometry" />
        </mxCell>
        <mxCell id="HCOR3qAwKXEvXlQrW8_Q-31" value="&lt;span style=&quot;font-size: 16px;&quot;&gt;日志查询工具&lt;/span&gt;" style="rounded=0;whiteSpace=wrap;html=1;fillColor=#dae8fc;strokeColor=#6c8ebf;container=0;" vertex="1" parent="1">
          <mxGeometry x="90" y="630" width="120" height="60" as="geometry" />
        </mxCell>
        <mxCell id="HCOR3qAwKXEvXlQrW8_Q-35" style="edgeStyle=orthogonalEdgeStyle;rounded=0;orthogonalLoop=1;jettySize=auto;html=1;exitX=1;exitY=0.5;exitDx=0;exitDy=0;entryX=0;entryY=0.5;entryDx=0;entryDy=0;strokeWidth=2;" edge="1" parent="1" source="HCOR3qAwKXEvXlQrW8_Q-33" target="HCOR3qAwKXEvXlQrW8_Q-34">
          <mxGeometry relative="1" as="geometry" />
        </mxCell>
        <mxCell id="HCOR3qAwKXEvXlQrW8_Q-33" value="&lt;span style=&quot;font-size: 16px;&quot;&gt;Jaeger平台&lt;/span&gt;" style="rounded=0;whiteSpace=wrap;html=1;fillColor=#ffe6cc;strokeColor=#d79b00;container=0;" vertex="1" parent="1">
          <mxGeometry x="-110" y="710" width="120" height="60" as="geometry" />
        </mxCell>
        <mxCell id="HCOR3qAwKXEvXlQrW8_Q-40" style="edgeStyle=orthogonalEdgeStyle;rounded=0;orthogonalLoop=1;jettySize=auto;html=1;exitX=1;exitY=0.5;exitDx=0;exitDy=0;entryX=0;entryY=0.5;entryDx=0;entryDy=0;strokeWidth=2;" edge="1" parent="1" source="HCOR3qAwKXEvXlQrW8_Q-34" target="HCOR3qAwKXEvXlQrW8_Q-39">
          <mxGeometry relative="1" as="geometry" />
        </mxCell>
        <mxCell id="HCOR3qAwKXEvXlQrW8_Q-34" value="&lt;span style=&quot;font-size: 16px;&quot;&gt;trace查询工具&lt;/span&gt;" style="rounded=0;whiteSpace=wrap;html=1;fillColor=#dae8fc;strokeColor=#6c8ebf;container=0;" vertex="1" parent="1">
          <mxGeometry x="90" y="710" width="120" height="60" as="geometry" />
        </mxCell>
        <mxCell id="HCOR3qAwKXEvXlQrW8_Q-38" style="edgeStyle=orthogonalEdgeStyle;rounded=0;orthogonalLoop=1;jettySize=auto;html=1;exitX=1;exitY=0.5;exitDx=0;exitDy=0;entryX=0;entryY=0.5;entryDx=0;entryDy=0;strokeWidth=2;" edge="1" parent="1" source="HCOR3qAwKXEvXlQrW8_Q-36" target="HCOR3qAwKXEvXlQrW8_Q-37">
          <mxGeometry relative="1" as="geometry" />
        </mxCell>
        <mxCell id="HCOR3qAwKXEvXlQrW8_Q-36" value="&lt;span style=&quot;font-size: 16px;&quot;&gt;ClickHouse平台&lt;/span&gt;" style="rounded=0;whiteSpace=wrap;html=1;fillColor=#ffe6cc;strokeColor=#d79b00;container=0;" vertex="1" parent="1">
          <mxGeometry x="-110" y="787.5" width="120" height="60" as="geometry" />
        </mxCell>
        <mxCell id="HCOR3qAwKXEvXlQrW8_Q-42" style="edgeStyle=orthogonalEdgeStyle;rounded=0;orthogonalLoop=1;jettySize=auto;html=1;exitX=1;exitY=0.5;exitDx=0;exitDy=0;entryX=0;entryY=0.5;entryDx=0;entryDy=0;strokeWidth=2;" edge="1" parent="1" source="HCOR3qAwKXEvXlQrW8_Q-37" target="HCOR3qAwKXEvXlQrW8_Q-39">
          <mxGeometry relative="1" as="geometry" />
        </mxCell>
        <mxCell id="HCOR3qAwKXEvXlQrW8_Q-37" value="&lt;span style=&quot;font-size: 16px;&quot;&gt;api信息查询工具&lt;/span&gt;" style="rounded=0;whiteSpace=wrap;html=1;fillColor=#dae8fc;strokeColor=#6c8ebf;container=0;" vertex="1" parent="1">
          <mxGeometry x="90" y="787.5" width="120" height="60" as="geometry" />
        </mxCell>
        <mxCell id="HCOR3qAwKXEvXlQrW8_Q-49" style="edgeStyle=orthogonalEdgeStyle;rounded=0;orthogonalLoop=1;jettySize=auto;html=1;exitX=1;exitY=0.5;exitDx=0;exitDy=0;entryX=0;entryY=0.5;entryDx=0;entryDy=0;strokeWidth=2;" edge="1" parent="1" source="HCOR3qAwKXEvXlQrW8_Q-39" target="HCOR3qAwKXEvXlQrW8_Q-48">
          <mxGeometry relative="1" as="geometry">
            <Array as="points">
              <mxPoint x="460" y="790" />
              <mxPoint x="460" y="890" />
            </Array>
          </mxGeometry>
        </mxCell>
        <mxCell id="HCOR3qAwKXEvXlQrW8_Q-39" value="&lt;font style=&quot;font-size: 16px;&quot;&gt;MCP Server&lt;/font&gt;" style="rounded=0;whiteSpace=wrap;html=1;fillColor=#d5e8d4;strokeColor=#82b366;container=0;" vertex="1" parent="1">
          <mxGeometry x="310" y="760" width="120" height="60" as="geometry" />
        </mxCell>
        <mxCell id="HCOR3qAwKXEvXlQrW8_Q-46" style="edgeStyle=orthogonalEdgeStyle;rounded=0;orthogonalLoop=1;jettySize=auto;html=1;exitX=1;exitY=0.5;exitDx=0;exitDy=0;strokeWidth=2;" edge="1" parent="1" source="HCOR3qAwKXEvXlQrW8_Q-43" target="HCOR3qAwKXEvXlQrW8_Q-45">
          <mxGeometry relative="1" as="geometry" />
        </mxCell>
        <mxCell id="HCOR3qAwKXEvXlQrW8_Q-43" value="&lt;b style=&quot;&quot;&gt;&lt;font style=&quot;font-size: 18px;&quot;&gt;...&lt;/font&gt;&lt;/b&gt;" style="rounded=0;whiteSpace=wrap;html=1;fillColor=#ffe6cc;strokeColor=#d79b00;container=0;" vertex="1" parent="1">
          <mxGeometry x="-110" y="870" width="120" height="60" as="geometry" />
        </mxCell>
        <mxCell id="HCOR3qAwKXEvXlQrW8_Q-47" style="edgeStyle=orthogonalEdgeStyle;rounded=0;orthogonalLoop=1;jettySize=auto;html=1;exitX=1;exitY=0.5;exitDx=0;exitDy=0;entryX=0;entryY=0.5;entryDx=0;entryDy=0;strokeWidth=2;" edge="1" parent="1" source="HCOR3qAwKXEvXlQrW8_Q-45" target="HCOR3qAwKXEvXlQrW8_Q-39">
          <mxGeometry relative="1" as="geometry" />
        </mxCell>
        <mxCell id="HCOR3qAwKXEvXlQrW8_Q-45" value="&lt;span style=&quot;font-size: 16px;&quot;&gt;其他工具&lt;/span&gt;" style="rounded=0;whiteSpace=wrap;html=1;fillColor=#dae8fc;strokeColor=#6c8ebf;container=0;" vertex="1" parent="1">
          <mxGeometry x="90" y="870" width="120" height="60" as="geometry" />
        </mxCell>
        <mxCell id="HCOR3qAwKXEvXlQrW8_Q-53" style="edgeStyle=orthogonalEdgeStyle;rounded=0;orthogonalLoop=1;jettySize=auto;html=1;exitX=1;exitY=0.5;exitDx=0;exitDy=0;entryX=0;entryY=0.5;entryDx=0;entryDy=0;strokeWidth=2;" edge="1" parent="1" source="HCOR3qAwKXEvXlQrW8_Q-48" target="HCOR3qAwKXEvXlQrW8_Q-52">
          <mxGeometry relative="1" as="geometry" />
        </mxCell>
        <mxCell id="HCOR3qAwKXEvXlQrW8_Q-48" value="&lt;font style=&quot;font-size: 16px;&quot;&gt;Cursor Agent&lt;/font&gt;" style="rounded=0;whiteSpace=wrap;html=1;fillColor=#e1d5e7;strokeColor=#9673a6;container=0;" vertex="1" parent="1">
          <mxGeometry x="510" y="860" width="120" height="60" as="geometry" />
        </mxCell>
        <mxCell id="HCOR3qAwKXEvXlQrW8_Q-51" style="edgeStyle=orthogonalEdgeStyle;rounded=0;orthogonalLoop=1;jettySize=auto;html=1;exitX=1;exitY=0.5;exitDx=0;exitDy=0;entryX=0;entryY=0.5;entryDx=0;entryDy=0;strokeWidth=2;" edge="1" parent="1" source="HCOR3qAwKXEvXlQrW8_Q-50" target="HCOR3qAwKXEvXlQrW8_Q-48">
          <mxGeometry relative="1" as="geometry">
            <Array as="points">
              <mxPoint x="460" y="1000" />
              <mxPoint x="460" y="890" />
            </Array>
          </mxGeometry>
        </mxCell>
        <mxCell id="HCOR3qAwKXEvXlQrW8_Q-50" value="&lt;span style=&quot;font-size: 16px;&quot;&gt;项目代码&lt;/span&gt;" style="rounded=0;whiteSpace=wrap;html=1;fillColor=#fff2cc;strokeColor=#d6b656;container=0;" vertex="1" parent="1">
          <mxGeometry x="310" y="970" width="120" height="60" as="geometry" />
        </mxCell>
        <mxCell id="HCOR3qAwKXEvXlQrW8_Q-52" value="&lt;font style=&quot;font-size: 16px;&quot;&gt;定位问题+修复建议&lt;/font&gt;" style="rounded=0;whiteSpace=wrap;html=1;fillColor=#f5f5f5;fontColor=#333333;strokeColor=#666666;container=0;" vertex="1" parent="1">
          <mxGeometry x="710" y="860" width="160" height="60" as="geometry" />
        </mxCell>
        <mxCell id="HCOR3qAwKXEvXlQrW8_Q-55" value="&lt;font style=&quot;color: light-dark(rgb(250, 0, 0), rgb(237, 237, 237)); font-size: 18px;&quot;&gt;&lt;b style=&quot;&quot;&gt;方案二&lt;/b&gt;&lt;/font&gt;" style="text;html=1;align=center;verticalAlign=middle;whiteSpace=wrap;rounded=0;container=0;" vertex="1" parent="1">
          <mxGeometry x="-160" y="585" width="60" height="30" as="geometry" />
        </mxCell>
        <mxCell id="HCOR3qAwKXEvXlQrW8_Q-58" value="&lt;font style=&quot;font-size: 16px;&quot;&gt;输出&lt;/font&gt;" style="text;html=1;align=center;verticalAlign=middle;resizable=0;points=[];autosize=1;strokeColor=none;fillColor=none;" vertex="1" parent="1">
          <mxGeometry x="640" y="860" width="60" height="30" as="geometry" />
        </mxCell>
        <mxCell id="HCOR3qAwKXEvXlQrW8_Q-64" value="" style="group" vertex="1" connectable="0" parent="1">
          <mxGeometry x="-150" y="80" width="810" height="390" as="geometry" />
        </mxCell>
        <mxCell id="HCOR3qAwKXEvXlQrW8_Q-7" value="" style="rounded=0;whiteSpace=wrap;html=1;dashed=1;strokeWidth=2;strokeColor=light-dark(#098500, #ededed);container=0;" vertex="1" parent="HCOR3qAwKXEvXlQrW8_Q-64">
          <mxGeometry width="810" height="390" as="geometry" />
        </mxCell>
        <mxCell id="HCOR3qAwKXEvXlQrW8_Q-26" value="&lt;font style=&quot;color: light-dark(rgb(250, 0, 0), rgb(237, 237, 237)); font-size: 18px;&quot;&gt;&lt;b style=&quot;&quot;&gt;方案一&lt;/b&gt;&lt;/font&gt;" style="text;html=1;align=center;verticalAlign=middle;whiteSpace=wrap;rounded=0;container=0;" vertex="1" parent="HCOR3qAwKXEvXlQrW8_Q-64">
          <mxGeometry width="60" height="30" as="geometry" />
        </mxCell>
        <mxCell id="HCOR3qAwKXEvXlQrW8_Q-18" style="edgeStyle=orthogonalEdgeStyle;rounded=0;orthogonalLoop=1;jettySize=auto;html=1;exitX=1;exitY=0.5;exitDx=0;exitDy=0;entryX=0;entryY=0.5;entryDx=0;entryDy=0;strokeWidth=2;" edge="1" parent="HCOR3qAwKXEvXlQrW8_Q-64" source="HCOR3qAwKXEvXlQrW8_Q-2" target="HCOR3qAwKXEvXlQrW8_Q-17">
          <mxGeometry relative="1" as="geometry" />
        </mxCell>
        <mxCell id="HCOR3qAwKXEvXlQrW8_Q-2" value="&lt;font style=&quot;font-size: 16px;&quot;&gt;Gitlab代码仓库检索工具&lt;/font&gt;" style="rounded=0;whiteSpace=wrap;html=1;fillColor=#dae8fc;strokeColor=#6c8ebf;container=0;" vertex="1" parent="HCOR3qAwKXEvXlQrW8_Q-64">
          <mxGeometry x="250" y="40" width="120" height="60" as="geometry" />
        </mxCell>
        <mxCell id="HCOR3qAwKXEvXlQrW8_Q-14" style="edgeStyle=orthogonalEdgeStyle;rounded=0;orthogonalLoop=1;jettySize=auto;html=1;exitX=1;exitY=0.5;exitDx=0;exitDy=0;entryX=0;entryY=0.5;entryDx=0;entryDy=0;strokeWidth=2;" edge="1" parent="HCOR3qAwKXEvXlQrW8_Q-64" source="HCOR3qAwKXEvXlQrW8_Q-5" target="HCOR3qAwKXEvXlQrW8_Q-2">
          <mxGeometry relative="1" as="geometry" />
        </mxCell>
        <mxCell id="HCOR3qAwKXEvXlQrW8_Q-5" value="&lt;font style=&quot;font-size: 16px;&quot;&gt;Gitlab代码仓库&lt;/font&gt;" style="rounded=0;whiteSpace=wrap;html=1;fillColor=#ffe6cc;strokeColor=#d79b00;container=0;" vertex="1" parent="HCOR3qAwKXEvXlQrW8_Q-64">
          <mxGeometry x="50" y="40" width="120" height="60" as="geometry" />
        </mxCell>
        <mxCell id="HCOR3qAwKXEvXlQrW8_Q-19" style="edgeStyle=orthogonalEdgeStyle;rounded=0;orthogonalLoop=1;jettySize=auto;html=1;exitX=1;exitY=0.5;exitDx=0;exitDy=0;entryX=0;entryY=0.5;entryDx=0;entryDy=0;strokeWidth=2;" edge="1" parent="HCOR3qAwKXEvXlQrW8_Q-64" source="HCOR3qAwKXEvXlQrW8_Q-8" target="HCOR3qAwKXEvXlQrW8_Q-17">
          <mxGeometry relative="1" as="geometry" />
        </mxCell>
        <mxCell id="HCOR3qAwKXEvXlQrW8_Q-8" value="&lt;span style=&quot;font-size: 16px;&quot;&gt;日志查询工具&lt;/span&gt;" style="rounded=0;whiteSpace=wrap;html=1;fillColor=#dae8fc;strokeColor=#6c8ebf;container=0;" vertex="1" parent="HCOR3qAwKXEvXlQrW8_Q-64">
          <mxGeometry x="250" y="130" width="120" height="60" as="geometry" />
        </mxCell>
        <mxCell id="HCOR3qAwKXEvXlQrW8_Q-20" style="edgeStyle=orthogonalEdgeStyle;rounded=0;orthogonalLoop=1;jettySize=auto;html=1;exitX=1;exitY=0.5;exitDx=0;exitDy=0;entryX=0;entryY=0.5;entryDx=0;entryDy=0;strokeWidth=2;" edge="1" parent="HCOR3qAwKXEvXlQrW8_Q-64" source="HCOR3qAwKXEvXlQrW8_Q-10" target="HCOR3qAwKXEvXlQrW8_Q-17">
          <mxGeometry relative="1" as="geometry" />
        </mxCell>
        <mxCell id="HCOR3qAwKXEvXlQrW8_Q-10" value="&lt;span style=&quot;font-size: 16px;&quot;&gt;trace查询工具&lt;/span&gt;" style="rounded=0;whiteSpace=wrap;html=1;fillColor=#dae8fc;strokeColor=#6c8ebf;container=0;" vertex="1" parent="HCOR3qAwKXEvXlQrW8_Q-64">
          <mxGeometry x="250" y="230" width="120" height="60" as="geometry" />
        </mxCell>
        <mxCell id="HCOR3qAwKXEvXlQrW8_Q-15" value="" style="edgeStyle=orthogonalEdgeStyle;rounded=0;orthogonalLoop=1;jettySize=auto;html=1;strokeWidth=2;" edge="1" parent="HCOR3qAwKXEvXlQrW8_Q-64" source="HCOR3qAwKXEvXlQrW8_Q-12" target="HCOR3qAwKXEvXlQrW8_Q-8">
          <mxGeometry relative="1" as="geometry" />
        </mxCell>
        <mxCell id="HCOR3qAwKXEvXlQrW8_Q-12" value="&lt;font style=&quot;font-size: 16px;&quot;&gt;日志平台&lt;/font&gt;" style="rounded=0;whiteSpace=wrap;html=1;fillColor=#ffe6cc;strokeColor=#d79b00;container=0;" vertex="1" parent="HCOR3qAwKXEvXlQrW8_Q-64">
          <mxGeometry x="50" y="130" width="120" height="60" as="geometry" />
        </mxCell>
        <mxCell id="HCOR3qAwKXEvXlQrW8_Q-16" style="edgeStyle=orthogonalEdgeStyle;rounded=0;orthogonalLoop=1;jettySize=auto;html=1;exitX=1;exitY=0.5;exitDx=0;exitDy=0;entryX=0;entryY=0.5;entryDx=0;entryDy=0;strokeWidth=2;" edge="1" parent="HCOR3qAwKXEvXlQrW8_Q-64" source="HCOR3qAwKXEvXlQrW8_Q-13" target="HCOR3qAwKXEvXlQrW8_Q-10">
          <mxGeometry relative="1" as="geometry" />
        </mxCell>
        <mxCell id="HCOR3qAwKXEvXlQrW8_Q-13" value="&lt;span style=&quot;font-size: 16px;&quot;&gt;Jaeger平台&lt;/span&gt;" style="rounded=0;whiteSpace=wrap;html=1;fillColor=#ffe6cc;strokeColor=#d79b00;container=0;" vertex="1" parent="HCOR3qAwKXEvXlQrW8_Q-64">
          <mxGeometry x="50" y="230" width="120" height="60" as="geometry" />
        </mxCell>
        <mxCell id="HCOR3qAwKXEvXlQrW8_Q-22" style="edgeStyle=orthogonalEdgeStyle;rounded=0;orthogonalLoop=1;jettySize=auto;html=1;exitX=1;exitY=0.5;exitDx=0;exitDy=0;entryX=0;entryY=0.5;entryDx=0;entryDy=0;strokeWidth=2;" edge="1" parent="HCOR3qAwKXEvXlQrW8_Q-64" source="HCOR3qAwKXEvXlQrW8_Q-17" target="HCOR3qAwKXEvXlQrW8_Q-21">
          <mxGeometry relative="1" as="geometry" />
        </mxCell>
        <mxCell id="HCOR3qAwKXEvXlQrW8_Q-17" value="&lt;font style=&quot;font-size: 16px;&quot;&gt;AI Dod问题定位Agent&lt;/font&gt;" style="rounded=0;whiteSpace=wrap;html=1;fillColor=#f8cecc;strokeColor=#b85450;container=0;" vertex="1" parent="HCOR3qAwKXEvXlQrW8_Q-64">
          <mxGeometry x="480" y="180" width="120" height="60" as="geometry" />
        </mxCell>
        <mxCell id="HCOR3qAwKXEvXlQrW8_Q-21" value="&lt;span style=&quot;font-size: 16px;&quot;&gt;报错信息及根因&lt;/span&gt;" style="rounded=0;whiteSpace=wrap;html=1;fillColor=#f5f5f5;fontColor=#333333;strokeColor=#666666;container=0;" vertex="1" parent="HCOR3qAwKXEvXlQrW8_Q-64">
          <mxGeometry x="680" y="180" width="120" height="60" as="geometry" />
        </mxCell>
        <mxCell id="HCOR3qAwKXEvXlQrW8_Q-23" value="&lt;font style=&quot;font-size: 16px;&quot;&gt;输出&lt;/font&gt;" style="text;html=1;align=center;verticalAlign=middle;resizable=0;points=[];autosize=1;strokeColor=none;fillColor=none;container=0;" vertex="1" parent="HCOR3qAwKXEvXlQrW8_Q-64">
          <mxGeometry x="610" y="170" width="60" height="30" as="geometry" />
        </mxCell>
        <mxCell id="HCOR3qAwKXEvXlQrW8_Q-62" style="edgeStyle=orthogonalEdgeStyle;rounded=0;orthogonalLoop=1;jettySize=auto;html=1;exitX=1;exitY=0.5;exitDx=0;exitDy=0;entryX=0;entryY=0.5;entryDx=0;entryDy=0;strokeWidth=2;" edge="1" parent="HCOR3qAwKXEvXlQrW8_Q-64" source="HCOR3qAwKXEvXlQrW8_Q-59" target="HCOR3qAwKXEvXlQrW8_Q-60">
          <mxGeometry relative="1" as="geometry" />
        </mxCell>
        <mxCell id="HCOR3qAwKXEvXlQrW8_Q-59" value="&lt;span style=&quot;font-size: 16px;&quot;&gt;ClickHouse平台&lt;/span&gt;" style="rounded=0;whiteSpace=wrap;html=1;fillColor=#ffe6cc;strokeColor=#d79b00;container=0;" vertex="1" parent="HCOR3qAwKXEvXlQrW8_Q-64">
          <mxGeometry x="50" y="320" width="120" height="60" as="geometry" />
        </mxCell>
        <mxCell id="HCOR3qAwKXEvXlQrW8_Q-63" style="edgeStyle=orthogonalEdgeStyle;rounded=0;orthogonalLoop=1;jettySize=auto;html=1;exitX=1;exitY=0.5;exitDx=0;exitDy=0;entryX=0;entryY=0.5;entryDx=0;entryDy=0;strokeWidth=2;" edge="1" parent="HCOR3qAwKXEvXlQrW8_Q-64" source="HCOR3qAwKXEvXlQrW8_Q-60" target="HCOR3qAwKXEvXlQrW8_Q-17">
          <mxGeometry relative="1" as="geometry" />
        </mxCell>
        <mxCell id="HCOR3qAwKXEvXlQrW8_Q-60" value="&lt;span style=&quot;font-size: 16px;&quot;&gt;api信息查询工具&lt;/span&gt;" style="rounded=0;whiteSpace=wrap;html=1;fillColor=#dae8fc;strokeColor=#6c8ebf;container=0;" vertex="1" parent="HCOR3qAwKXEvXlQrW8_Q-64">
          <mxGeometry x="250" y="320" width="120" height="60" as="geometry" />
        </mxCell>
      </root>
    </mxGraphModel>
  </diagram>
</mxfile>
